# ProBuilder 5.0.7
# https://unity3d.com/unity/features/worldbuilding/probuilder
# 30/08/2023 12:07:31 PM

mtllib ./alleyBlockoutIteration_01.mtl
o alleyBlockoutIteration_01

g alleyBarrier_03_geo
v 55.01 0.5634308 -4.050001
v 53.75704 0.5634308 -4.050001
v 55.01 2.841067 -4.050001
v 53.75704 2.841067 -4.050001
v 53.75704 0.5634308 -13.14438
v 53.75704 2.841067 -13.14438
v 55.01 0.5634308 -13.14438
v 55.01 2.841067 -13.14438

vt 0 0
vt -1.25296 0
vt 0 2.277636
vt -1.25296 2.277636
vt -9.09438 0
vt -9.09438 2.277636
vt 1.25296 0
vt 1.25296 2.277636
vt 9.09438 0
vt 9.09438 2.277636
vt 0 -9.09438
vt 1.25296 -9.09438
vt -1.25296 -9.09438

vn 0 0 1
vn -1 0 0
vn 0 0 -1
vn 1 0 0
vn 0 1 0
vn 0 -1 0

usemtl ProBuilderDefault
f 3/3/1 4/4/1 2/2/1 1/1/1
f 4/3/2 6/6/2 5/5/2 2/1/2
f 6/8/3 8/3/3 7/1/3 5/7/3
f 8/10/4 3/3/4 1/1/4 7/9/4
f 8/11/5 6/12/5 4/7/5 3/1/5
f 1/1/6 2/2/6 5/13/6 7/11/6

g alleyBarrier_04_geo
v 55.01 0.5634308 11.04
v 53.75704 0.5634308 11.04
v 55.01 2.841067 11.04
v 53.75704 2.841067 11.04
v 53.75704 0.5634308 1.945619
v 53.75704 2.841067 1.945619
v 55.01 0.5634308 1.945619
v 55.01 2.841067 1.945619

vt 0 0
vt -1.25296 0
vt 0 2.277636
vt -1.25296 2.277636
vt -9.09438 0
vt -9.09438 2.277636
vt 1.25296 0
vt 1.25296 2.277636
vt 9.09438 0
vt 9.09438 2.277636
vt 0 -9.09438
vt 1.25296 -9.09438
vt -1.25296 -9.09438

vn 0 0 1
vn -1 0 0
vn 0 0 -1
vn 1 0 0
vn 0 1 0
vn 0 -1 0

usemtl ProBuilderDefault
f 11/16/7 12/17/7 10/15/7 9/14/7
f 12/16/8 14/19/8 13/18/8 10/14/8
f 14/21/9 16/16/9 15/14/9 13/20/9
f 16/23/10 11/16/10 9/14/10 15/22/10
f 16/24/11 14/25/11 12/20/11 11/14/11
f 9/14/12 10/15/12 13/26/12 15/24/12

g alleyWall_02_geo
v 88.06989 -0.1949902 14.89
v 46.2146 -0.1949902 14.89
v 88.06989 11.15092 14.89
v 46.2146 11.15092 14.89
v 46.2146 -0.1949902 14.00593
v 46.2146 11.15092 14.00593
v 88.06989 -0.1949902 14.00593
v 88.06989 11.15092 14.00593

vt 41.8553 0
vt 3.814697E-06 0
vt 41.8553 11.34591
vt 3.814697E-06 11.34591
vt -0.8840709 0
vt -0.8840709 11.34591
vt -41.8553 0
vt -41.8553 11.34591
vt 0.8840709 0
vt 0.8840709 11.34591
vt -41.8553 -0.8840709
vt -3.814697E-06 -0.8840709
vt 41.8553 -0.8840709

vn 0 0 1
vn -1 0 0
vn 0 0 -1
vn 1 0 0
vn 0 1 0
vn 0 -1 0

usemtl ProBuilderDefault
f 19/29/13 20/30/13 18/28/13 17/27/13
f 20/30/14 22/32/14 21/31/14 18/28/14
f 22/30/15 24/34/15 23/33/15 21/28/15
f 24/36/16 19/30/16 17/28/16 23/35/16
f 24/37/17 22/38/17 20/28/17 19/33/17
f 17/27/18 18/28/18 21/38/18 23/39/18

g alleyWall_03_geo
v 46.07936 -0.3311141 42.69402
v 46.07936 11.22817 42.69402
v 47.18362 -0.3311142 42.69402
v 47.18362 11.22817 42.69402
v 46.07936 11.22817 -39.88815
v 47.18362 11.22817 -39.88815
v 46.07936 -0.3311141 -39.88815
v 47.18362 -0.3311142 -39.88815

vt 11.55987 -1.039546
vt 0.0005869865 -1.039546
vt 11.55987 0.06470951
vt 0.0005869865 0.06470951
vt 28.60833 -1.039546
vt -53.97383 -1.039546
vt 28.60833 0.06470951
vt -53.97383 0.06470951
vt -0.0005869865 -1.039546
vt -11.55987 -1.039546
vt -0.0005869865 0.06470951
vt -11.55987 0.06470951
vt 53.97383 -1.039546
vt -28.60833 -1.039546
vt 53.97383 0.06470951
vt -28.60833 0.06470951
vt -11.55987 28.60833
vt -0.0005869865 28.60833
vt -11.55987 -53.97383
vt -0.0005869865 -53.97383
vt 11.55987 -53.97383
vt 0.0005869865 -53.97383
vt 11.55987 28.60833
vt 0.0005869865 28.60833

vn 0 0 1
vn 1.192093E-07 1 0
vn 0 0 -1
vn -1.192093E-07 -1 0
vn 1 -1.192093E-07 0
vn -1 1.192093E-07 0

usemtl ProBuilderDefault
f 27/42/19 28/43/19 26/41/19 25/40/19
f 28/46/20 30/47/20 29/45/20 26/44/20
f 30/50/21 32/51/21 31/49/21 29/48/21
f 32/54/22 27/55/22 25/53/22 31/52/22
f 32/58/23 30/59/23 28/57/23 27/56/23
f 25/62/24 26/63/24 29/61/24 31/60/24

g alleyBarrier_02_geo
v 79.96835 0.5634308 -4.050001
v 78.71539 0.5634308 -4.050001
v 79.96835 2.841067 -4.050001
v 78.71539 2.841067 -4.050001
v 78.71539 0.5634308 -13.14438
v 78.71539 2.841067 -13.14438
v 79.96835 0.5634308 -13.14438
v 79.96835 2.841067 -13.14438

vt 0 0
vt -1.25296 0
vt 0 2.277636
vt -1.25296 2.277636
vt -9.09438 0
vt -9.09438 2.277636
vt 1.25296 0
vt 1.25296 2.277636
vt 9.09438 0
vt 9.09438 2.277636
vt 0 -9.09438
vt 1.25296 -9.09438
vt -1.25296 -9.09438

vn 0 0 1
vn -1 0 0
vn 0 0 -1
vn 1 0 0
vn 0 1 0
vn 0 -1 0

usemtl ProBuilderDefault
f 35/66/25 36/67/25 34/65/25 33/64/25
f 36/66/26 38/69/26 37/68/26 34/64/26
f 38/71/27 40/66/27 39/64/27 37/70/27
f 40/73/28 35/66/28 33/64/28 39/72/28
f 40/74/29 38/75/29 36/70/29 35/64/29
f 33/64/30 34/65/30 37/76/30 39/74/30

g alleyWall_01_geo
v 86.64045 -0.3295262 42.8549
v 86.64046 11.22976 42.8549
v 87.74471 -0.3295264 42.8549
v 87.74471 11.22976 42.8549
v 86.64046 11.22976 -39.92708
v 87.74471 11.22976 -39.92708
v 86.64045 -0.3295262 -39.92708
v 87.74471 -0.3295264 -39.92708

vt 11.55966 -1.039546
vt 0.0003752708 -1.039546
vt 11.55966 0.06470951
vt 0.0003752708 0.06470951
vt 28.76921 -1.039546
vt -54.01276 -1.039546
vt 28.76921 0.06470951
vt -54.01276 0.06470951
vt -11.55966 -1.039546
vt -11.55966 0.06470951
vt 54.01276 -1.039546
vt -28.76921 -1.039546
vt 54.01276 0.06470951
vt -28.76921 0.06470951
vt -11.55966 28.76921
vt -0.0003752708 28.76921
vt -11.55966 -54.01276
vt -0.0003752708 -54.01276
vt 11.55966 -54.01276
vt 11.55966 28.76921

vn 0 0 1
vn 1.192093E-07 1 0
vn 0 0 -1
vn -1.192093E-07 -1 0
vn 1 -1.192093E-07 0
vn -1 1.192093E-07 0

usemtl ProBuilderDefault
f 43/79/31 44/80/31 42/78/31 41/77/31
f 44/83/32 46/84/32 45/82/32 42/81/32
f 46/80/33 48/86/33 47/85/33 45/78/33
f 48/89/34 43/90/34 41/88/34 47/87/34
f 48/93/35 46/94/35 44/92/35 43/91/35
f 41/96/36 42/92/36 45/94/36 47/95/36

g alleyBarrier_01_geo
v 79.96835 0.5634308 11.01
v 78.71539 0.5634308 11.01
v 79.96835 2.841067 11.01
v 78.71539 2.841067 11.01
v 78.71539 0.5634308 1.91562
v 78.71539 2.841067 1.91562
v 79.96835 0.5634308 1.91562
v 79.96835 2.841067 1.91562

vt 0 0
vt -1.25296 0
vt 0 2.277636
vt -1.25296 2.277636
vt -9.09438 0
vt -9.09438 2.277636
vt 1.25296 0
vt 1.25296 2.277636
vt 9.09438 0
vt 9.09438 2.277636
vt 0 -9.09438
vt 1.25296 -9.09438
vt -1.25296 -9.09438

vn 0 0 1
vn -1 0 0
vn 0 0 -1
vn 1 0 0
vn 0 1 0
vn 0 -1 0

usemtl ProBuilderDefault
f 51/99/37 52/100/37 50/98/37 49/97/37
f 52/99/38 54/102/38 53/101/38 50/97/38
f 54/104/39 56/99/39 55/97/39 53/103/39
f 56/106/40 51/99/40 49/97/40 55/105/40
f 56/107/41 54/108/41 52/103/41 51/97/41
f 49/97/42 50/98/42 53/109/42 55/107/42

g alleyWall_04_geo
v 88.06989 -0.1949902 -17.19
v 46.2146 -0.1949902 -17.19
v 88.06989 11.15092 -17.19
v 46.2146 11.15092 -17.19
v 46.2146 -0.1949902 -18.07407
v 46.2146 11.15092 -18.07407
v 88.06989 -0.1949902 -18.07407
v 88.06989 11.15092 -18.07407

vt 41.8553 0
vt 3.814697E-06 0
vt 41.8553 11.34591
vt 3.814697E-06 11.34591
vt -0.8840709 0
vt -0.8840709 11.34591
vt -41.8553 0
vt -41.8553 11.34591
vt 0.8840709 0
vt 0.8840709 11.34591
vt -41.8553 -0.8840709
vt -3.814697E-06 -0.8840709
vt 41.8553 -0.8840709

vn 0 0 1
vn -1 0 0
vn 0 0 -1
vn 1 0 0
vn 0 1 0
vn 0 -1 0

usemtl ProBuilderDefault
f 59/112/43 60/113/43 58/111/43 57/110/43
f 60/113/44 62/115/44 61/114/44 58/111/44
f 62/113/45 64/117/45 63/116/45 61/111/45
f 64/119/46 59/113/46 57/111/46 63/118/46
f 64/120/47 62/121/47 60/111/47 59/116/47
f 57/110/48 58/111/48 61/121/48 63/122/48

g alleyFloor_geo
v 45.95734 -0.1949902 42.91781
v 45.95734 -0.4212427 42.91781
v 45.95734 -0.4212427 22.1615
v 45.95734 -0.1949902 22.1615
v 45.95734 -0.6474953 42.91781
v 45.95734 -0.6474953 22.1615
v 45.95734 -0.6474953 1.405186
v 45.95734 -0.4212427 1.405186
v 45.95734 -0.1949902 1.405186
v 45.95734 -0.8737478 42.91781
v 45.95734 -0.8737478 22.1615
v 45.95734 -1.1 42.91781
v 45.95734 -1.1 22.1615
v 45.95734 -1.1 1.405186
v 45.95734 -0.8737478 1.405186
v 45.95734 -0.8737478 -19.35113
v 45.95734 -0.6474953 -19.35113
v 45.95734 -1.1 -19.35113
v 45.95734 -1.1 -40.10744
v 45.95734 -0.8737478 -40.10744
v 45.95734 -0.6474953 -40.10744
v 45.95734 -0.4212427 -19.35113
v 45.95734 -0.1949902 -19.35113
v 45.95734 -0.4212427 -40.10744
v 45.95734 -0.1949902 -40.10744
v 56.41325 -1.1 42.91781
v 56.41325 -1.1 22.1615
v 66.86916 -1.1 42.91781
v 66.86916 -1.1 22.1615
v 66.86916 -1.1 1.405186
v 56.41325 -1.1 1.405186
v 77.32506 -1.1 42.91781
v 77.32506 -1.1 22.1615
v 87.78097 -1.1 42.91781
v 87.78097 -1.1 22.1615
v 87.78097 -1.1 1.405186
v 77.32506 -1.1 1.405186
v 77.32506 -1.1 -19.35113
v 66.86916 -1.1 -19.35113
v 87.78097 -1.1 -19.35113
v 87.78097 -1.1 -40.10744
v 77.32506 -1.1 -40.10744
v 66.86916 -1.1 -40.10744
v 56.41325 -1.1 -19.35113
v 56.41325 -1.1 -40.10744
v 87.78097 -0.6474953 1.405186
v 87.78097 -0.8737478 1.405186
v 87.78097 -0.8737478 22.1615
v 87.78097 -0.6474953 22.1615
v 87.78097 -0.8737478 42.91781
v 87.78097 -0.6474953 42.91781
v 87.78097 -0.1949902 1.405186
v 87.78097 -0.4212427 1.405186
v 87.78097 -0.4212427 22.1615
v 87.78097 -0.1949902 22.1615
v 87.78097 -0.4212427 42.91781
v 87.78097 -0.1949902 42.91781
v 87.78097 -0.1949902 -40.10744
v 87.78097 -0.4212427 -40.10744
v 87.78097 -0.4212427 -19.35113
v 87.78097 -0.1949902 -19.35113
v 87.78097 -0.6474953 -40.10744
v 87.78097 -0.6474953 -19.35113
v 87.78097 -0.8737478 -40.10744
v 87.78097 -0.8737478 -19.35113
v 66.86916 -0.1949902 1.405186
v 77.32506 -0.1949902 1.405186
v 77.32506 -0.1949902 22.1615
v 66.86916 -0.1949902 22.1615
v 77.32506 0.5634298 1.405186
v 87.78097 0.5634298 1.405186
v 87.78097 0.5634298 22.1615
v 77.32506 0.5634298 22.1615
v 87.78097 0.5634298 42.91781
v 77.32506 0.5634298 42.91781
v 77.32506 -0.1949902 42.91781
v 66.86916 -0.1949902 42.91781
v 45.95734 0.5634298 1.405186
v 56.41325 0.5634298 1.405186
v 56.41325 0.5634298 22.1615
v 45.95734 0.5634298 22.1615
v 56.41325 -0.1949902 1.405186
v 56.41325 -0.1949902 22.1615
v 56.41325 -0.1949902 42.91781
v 56.41325 0.5634298 42.91781
v 45.95734 0.5634298 42.91781
v 45.95734 0.5634298 -40.10744
v 56.41325 0.5634298 -40.10744
v 56.41325 0.5634298 -19.35113
v 45.95734 0.5634298 -19.35113
v 56.41325 -0.1949902 -40.10744
v 66.86916 -0.1949902 -40.10744
v 66.86916 -0.1949902 -19.35113
v 56.41325 -0.1949902 -19.35113
v 77.32506 -0.1949902 -40.10744
v 77.32506 -0.1949902 -19.35113
v 77.32506 0.5634298 -40.10744
v 87.78097 0.5634298 -40.10744
v 87.78097 0.5634298 -19.35113
v 77.32506 0.5634298 -19.35113
v 66.86916 -0.6474953 -40.10744
v 66.86916 -0.4212427 -40.10744
v 56.41325 -0.4212427 -40.10744
v 56.41325 -0.6474953 -40.10744
v 66.86916 -0.8737478 -40.10744
v 56.41325 -0.8737478 -40.10744
v 77.32506 -0.8737478 -40.10744
v 77.32506 -0.6474953 -40.10744
v 77.32506 -0.4212427 -40.10744
v 66.86916 -0.6474953 42.91781
v 66.86916 -0.4212427 42.91781
v 77.32506 -0.4212427 42.91781
v 77.32506 -0.6474953 42.91781
v 66.86916 -0.8737478 42.91781
v 77.32506 -0.8737478 42.91781
v 56.41325 -0.8737478 42.91781
v 56.41325 -0.6474953 42.91781
v 56.41325 -0.4212427 42.91781

vt 0.9050102 -60.55694
vt 0.6787577 -60.55694
vt 0.6787577 -39.80063
vt 0.9050102 -39.80063
vt 0.4525051 -60.55694
vt 0.4525051 -39.80063
vt 0.4525051 -19.04432
vt 0.6787577 -19.04432
vt 0.9050102 -19.04432
vt 0.2262526 -60.55694
vt 0.2262526 -39.80063
vt 0 -60.55694
vt 0 -39.80063
vt 0 -19.04432
vt 0.2262526 -19.04432
vt 0.2262526 1.711998
vt 0.4525051 1.711998
vt 0 1.711998
vt 0 22.46831
vt 0.2262526 22.46831
vt 0.4525051 22.46831
vt 0.6787577 1.711998
vt 0.9050102 1.711998
vt 0.6787577 22.46831
vt 0.9050102 22.46831
vt 41.44266 -60.55694
vt 30.98675 -60.55694
vt 30.98675 -39.80063
vt 41.44266 -39.80063
vt 20.53085 -60.55694
vt 20.53085 -39.80063
vt 20.53085 -19.04432
vt 30.98675 -19.04432
vt 41.44266 -19.04432
vt 10.07494 -60.55694
vt 10.07494 -39.80063
vt -0.3809662 -60.55694
vt -0.3809662 -39.80063
vt -0.3809662 -19.04432
vt 10.07494 -19.04432
vt 10.07494 1.711998
vt 20.53085 1.711998
vt -0.3809662 1.711998
vt -0.3809662 22.46831
vt 10.07494 22.46831
vt 20.53085 22.46831
vt 30.98675 1.711998
vt 41.44266 1.711998
vt 30.98675 22.46831
vt 41.44266 22.46831
vt -0.4525051 -19.04432
vt -0.2262526 -19.04432
vt -0.2262526 -39.80063
vt -0.4525051 -39.80063
vt -0.2262526 -60.55694
vt -0.4525051 -60.55694
vt -0.9050102 -19.04432
vt -0.6787577 -19.04432
vt -0.6787577 -39.80063
vt -0.9050102 -39.80063
vt -0.6787577 -60.55694
vt -0.9050102 -60.55694
vt -0.9050102 22.46831
vt -0.6787577 22.46831
vt -0.6787577 1.711998
vt -0.9050102 1.711998
vt -0.4525051 22.46831
vt -0.4525051 1.711998
vt -0.2262526 22.46831
vt -0.2262526 1.711998
vt -20.53085 -19.04432
vt -10.07494 -19.04432
vt -10.07494 -39.80063
vt -20.53085 -39.80063
vt 0.3809662 -19.04432
vt 0.3809662 -39.80063
vt 0.3809662 -60.55694
vt -10.07494 -60.55694
vt -20.53085 -60.55694
vt -41.44266 -19.04432
vt -30.98675 -19.04432
vt -30.98675 -39.80063
vt -41.44266 -39.80063
vt -30.98675 -60.55694
vt -41.44266 -60.55694
vt -41.44266 22.46831
vt -30.98675 22.46831
vt -30.98675 1.711998
vt -41.44266 1.711998
vt -20.53085 22.46831
vt -20.53085 1.711998
vt -10.07494 22.46831
vt -10.07494 1.711998
vt 0.3809662 22.46831
vt 0.3809662 1.711998
vt -0.4525051 20.53085
vt -0.6787577 20.53085
vt -0.6787577 30.98675
vt -0.4525051 30.98675
vt -0.9050102 20.53085
vt -0.9050102 30.98675
vt -0.9050102 41.44266
vt -0.6787577 41.44266
vt -0.4525051 41.44266
vt 0 20.53085
vt -0.2262526 20.53085
vt -0.2262526 30.98675
vt 0 30.98675
vt -0.2262526 41.44266
vt 0 41.44266
vt 0 -0.3809662
vt -0.2262526 -0.3809662
vt -0.2262526 10.07494
vt 0 10.07494
vt -0.4525051 -0.3809662
vt -0.4525051 10.07494
vt -0.6787577 -0.3809662
vt -0.6787577 10.07494
vt -0.9050102 -0.3809662
vt -0.9050102 10.07494
vt 0.4525051 20.53085
vt 0.6787577 20.53085
vt 0.6787577 10.07494
vt 0.4525051 10.07494
vt 0.9050102 20.53085
vt 0.9050102 10.07494
vt 0.9050102 -0.3809662
vt 0.6787577 -0.3809662
vt 0.4525051 -0.3809662
vt 0.2262526 20.53085
vt 0.2262526 10.07494
vt 0.2262526 -0.3809662
vt 0.2262526 41.44266
vt 0.2262526 30.98675
vt 0.4525051 41.44266
vt 0.4525051 30.98675
vt 0.6787577 41.44266
vt 0.6787577 30.98675
vt 0.9050102 41.44266
vt 0.9050102 30.98675
vt -1.66343 10.07494
vt -1.66343 -0.3809662
vt -1.66343 22.46831
vt -1.66343 1.711998
vt -1.66343 -19.04432
vt 1.663481 1.711998
vt 1.663481 22.46831
vt -1.66343 -39.80063
vt 1.663481 -19.04432
vt -1.66343 -60.55694
vt 1.663481 -39.80063
vt 1.66343 -0.3809662
vt 1.66343 10.07494
vt 1.663481 -60.55694
vt 1.66343 30.98675
vt 1.66343 41.44266
vt -1.66343 41.44266
vt -1.66343 30.98675

vn -1 0 0
vn 0 -1 0
vn 1 0 0
vn 0 1 0
vn 0 0 -1
vn 0 0 1

usemtl ProBuilderDefault
f 68/126/49 67/125/49 66/124/49 65/123/49
f 67/125/49 70/128/49 69/127/49 66/124/49
f 72/130/49 71/129/49 70/128/49 67/125/49
f 73/131/49 72/130/49 67/125/49 68/126/49
f 70/128/49 75/133/49 74/132/49 69/127/49
f 75/133/49 77/135/49 76/134/49 74/132/49
f 79/137/49 78/136/49 77/135/49 75/133/49
f 71/129/49 79/137/49 75/133/49 70/128/49
f 81/139/49 80/138/49 79/137/49 71/129/49
f 80/138/49 82/140/49 78/136/49 79/137/49
f 84/142/49 83/141/49 82/140/49 80/138/49
f 85/143/49 84/142/49 80/138/49 81/139/49
f 87/145/49 86/144/49 72/130/49 73/131/49
f 86/144/49 81/139/49 71/129/49 72/130/49
f 88/146/49 85/143/49 81/139/49 86/144/49
f 89/147/49 88/146/49 86/144/49 87/145/49
f 77/151/50 91/150/50 90/149/50 76/148/50
f 91/150/50 93/153/50 92/152/50 90/149/50
f 95/155/50 94/154/50 93/153/50 91/150/50
f 78/156/50 95/155/50 91/150/50 77/151/50
f 93/153/50 97/158/50 96/157/50 92/152/50
f 97/158/50 99/160/50 98/159/50 96/157/50
f 101/162/50 100/161/50 99/160/50 97/158/50
f 94/154/50 101/162/50 97/158/50 93/153/50
f 103/164/50 102/163/50 101/162/50 94/154/50
f 102/163/50 104/165/50 100/161/50 101/162/50
f 106/167/50 105/166/50 104/165/50 102/163/50
f 107/168/50 106/167/50 102/163/50 103/164/50
f 82/170/50 108/169/50 95/155/50 78/156/50
f 108/169/50 103/164/50 94/154/50 95/155/50
f 109/171/50 107/168/50 103/164/50 108/169/50
f 83/172/50 109/171/50 108/169/50 82/170/50
f 113/176/51 112/175/51 111/174/51 110/173/51
f 112/175/51 99/135/51 100/136/51 111/174/51
f 114/177/51 98/134/51 99/135/51 112/175/51
f 115/178/51 114/177/51 112/175/51 113/176/51
f 119/182/51 118/181/51 117/180/51 116/179/51
f 118/181/51 113/176/51 110/173/51 117/180/51
f 120/183/51 115/178/51 113/176/51 118/181/51
f 121/184/51 120/183/51 118/181/51 119/182/51
f 125/188/51 124/187/51 123/186/51 122/185/51
f 124/187/51 127/190/51 126/189/51 123/186/51
f 117/180/51 110/173/51 127/190/51 124/187/51
f 116/179/51 117/180/51 124/187/51 125/188/51
f 127/190/51 129/192/51 128/191/51 126/189/51
f 129/192/51 104/140/51 105/141/51 128/191/51
f 111/174/51 100/136/51 104/140/51 129/192/51
f 110/173/51 111/174/51 129/192/51 127/190/51
f 133/196/52 132/195/52 131/194/52 130/193/52
f 137/195/52 136/198/52 135/197/52 134/194/52
f 139/200/52 138/199/52 136/198/52 137/195/52
f 141/201/52 140/200/52 132/195/52 133/196/52
f 145/205/52 144/204/52 143/203/52 142/202/52
f 147/204/52 133/196/52 130/193/52 146/203/52
f 148/206/52 141/201/52 133/196/52 147/204/52
f 150/207/52 149/206/52 144/204/52 145/205/52
f 154/211/52 153/210/52 152/209/52 151/208/52
f 158/210/52 157/213/52 156/212/52 155/209/52
f 146/203/52 130/193/52 157/213/52 158/210/52
f 142/202/52 143/203/52 153/210/52 154/211/52
f 157/213/52 160/215/52 159/214/52 156/212/52
f 164/215/52 163/217/52 162/216/52 161/214/52
f 134/194/52 135/197/52 163/217/52 164/215/52
f 130/193/52 131/194/52 160/215/52 157/213/52
f 168/221/53 167/220/53 166/219/53 165/218/53
f 167/220/53 155/223/53 156/222/53 166/219/53
f 88/225/53 89/224/53 155/223/53 167/220/53
f 85/226/53 88/225/53 167/220/53 168/221/53
f 109/230/53 170/229/53 169/228/53 107/227/53
f 170/229/53 168/221/53 165/218/53 169/228/53
f 84/231/53 85/226/53 168/221/53 170/229/53
f 83/232/53 84/231/53 170/229/53 109/230/53
f 106/236/53 171/235/53 128/234/53 105/233/53
f 171/235/53 172/238/53 126/237/53 128/234/53
f 169/228/53 165/218/53 172/238/53 171/235/53
f 107/227/53 169/228/53 171/235/53 106/236/53
f 172/238/53 173/240/53 123/239/53 126/237/53
f 173/240/53 159/242/53 122/241/53 123/239/53
f 166/219/53 156/222/53 159/242/53 173/240/53
f 165/218/53 166/219/53 173/240/53 172/238/53
f 177/246/54 176/245/54 175/244/54 174/243/54
f 176/245/54 140/248/54 141/247/54 175/244/54
f 120/250/54 121/249/54 140/248/54 176/245/54
f 115/251/54 120/250/54 176/245/54 177/246/54
f 96/236/54 179/253/54 178/252/54 92/227/54
f 179/253/54 177/246/54 174/243/54 178/252/54
f 114/254/54 115/251/54 177/246/54 179/253/54
f 98/233/54 114/254/54 179/253/54 96/236/54
f 90/230/54 180/256/54 74/255/54 76/232/54
f 180/256/54 181/258/54 69/257/54 74/255/54
f 178/252/54 174/243/54 181/258/54 180/256/54
f 92/227/54 178/252/54 180/256/54 90/230/54
f 181/258/54 182/260/54 66/259/54 69/257/54
f 182/260/54 148/262/54 65/261/54 66/259/54
f 175/244/54 141/247/54 148/262/54 182/260/54
f 174/243/54 175/244/54 182/260/54 181/258/54
f 161/263/53 162/264/53 122/241/53 159/242/53
f 162/265/51 163/266/51 125/188/51 122/185/51
f 163/266/51 135/267/51 116/179/51 125/188/51
f 164/268/49 161/269/49 159/147/49 160/145/49
f 135/267/51 136/270/51 119/182/51 116/179/51
f 134/271/49 164/268/49 160/145/49 131/131/49
f 136/270/51 138/272/51 121/184/51 119/182/51
f 137/273/49 134/271/49 131/131/49 132/126/49
f 138/274/54 139/275/54 140/248/54 121/249/54
f 139/276/49 137/273/49 132/126/49 140/123/49
f 145/273/49 142/271/49 73/131/49 68/126/49
f 144/270/51 149/272/51 148/184/51 147/182/51
f 149/277/54 150/278/54 65/261/54 148/262/54
f 150/276/49 145/273/49 68/126/49 65/123/49
f 142/271/49 154/268/49 87/145/49 73/131/49
f 143/267/51 144/270/51 147/182/51 146/179/51
f 154/268/49 151/269/49 89/147/49 87/145/49
f 153/266/51 143/267/51 146/179/51 158/188/51
f 151/279/53 152/280/53 155/223/53 89/224/53
f 152/265/51 153/266/51 158/188/51 155/185/51

